<?xml version="1.0" encoding="UTF-8"?>
<svg xmlns="http://www.w3.org/2000/svg" xmlns:xlink="http://www.w3.org/1999/xlink" id="Layer_1" x="0px" y="0px" viewBox="0 0 11.7 17.8" style="enable-background:new 0 0 11.7 17.8;" xml:space="preserve">
<g id="Group_533" transform="translate(10623 -5164)" fill="#3c5bf9">
	<g id="Group_531" transform="translate(-10623 5167.753)">
		<g id="Group_511" transform="translate(5.253 3.979)">
			<circle id="Ellipse_17" cx="1.1" cy="1.1" r="1.1"></circle>
		</g>
		<g id="Group_512" transform="translate(7.303 3.979)">
			<circle id="Ellipse_18" cx="1.1" cy="1.1" r="1.1"></circle>
		</g>
		<g id="Group_513" transform="translate(9.353 3.979)">
			<circle id="Ellipse_19" cx="1.1" cy="1.1" r="1.1"></circle>
		</g>
		<g id="Group_514" transform="translate(3.165 7.619)">
			<circle id="Ellipse_20" cx="1.1" cy="1.1" r="1.1"></circle>
		</g>
		<g id="Group_515" transform="translate(0 0)">
			<path id="Path_258" d="M3.2,0v7.5c0,0-1.9-3-3-1.4C-0.4,6.9,0.8,7.8,2,10.9c1.3,3.2,4.6,3.2,5.9,3.1c3.5-0.4,3.4-10.2-2.5-9.1V0     L3.2,0z"></path>
		</g>
		<g id="Group_516" transform="translate(7.92 5.102)">
			<path id="Path_259" d="M0.1,0.4L3.7,0c0,0,1.1,8.2-3.7,8.9L0.1,0.4z"></path>
		</g>
	</g>
	<g id="Group_532" transform="translate(-10622.585 5164)">
		<g id="Group_510" transform="translate(2.749 2.371)">
			<ellipse id="Ellipse_16" cx="1.1" cy="1.3" rx="1.1" ry="1.3"></ellipse>
		</g>
		<g id="Group_518" transform="translate(3.505 0)">
			<path id="Path_260" d="M0.4,1.9C0.2,1.9,0,1.7,0,1.5V0.4C0,0.2,0.2,0,0.4,0s0.4,0.2,0.4,0.4l0,0v1.1C0.8,1.7,0.6,1.9,0.4,1.9z"></path>
		</g>
		<g id="Group_519" transform="translate(1.081 0.823)">
			<path id="Path_261" d="M1.2,1.5c-0.1,0-0.2,0-0.3-0.1L0.1,0.6C0,0.5,0,0.2,0.1,0.1C0.3,0,0.5,0,0.6,0.1l0.8,0.8     c0.1,0.1,0.1,0.4,0,0.5C1.4,1.5,1.3,1.5,1.2,1.5L1.2,1.5z"></path>
		</g>
		<g id="Group_520" transform="translate(0 3.243)">
			<path id="Path_262" d="M1.5,0.8H0.4C0.2,0.8,0,0.6,0,0.4S0.2,0,0.4,0h1.1c0.2,0,0.4,0.2,0.4,0.4S1.7,0.8,1.5,0.8z"></path>
		</g>
		<g id="Group_521" transform="translate(5.133 0.823)">
			<path id="Path_263" d="M0.4,1.5C0.2,1.5,0,1.4,0,1.2C0,1.1,0,1,0.1,0.9l0.8-0.8C1.1,0,1.3,0,1.4,0.1c0.1,0.1,0.1,0.4,0,0.5     L0.6,1.4C0.6,1.5,0.5,1.5,0.4,1.5z"></path>
		</g>
		<g id="Group_522" transform="translate(5.885 3.243)">
			<path id="Path_264" d="M1.5,0.8H0.4C0.2,0.8,0,0.6,0,0.4S0.2,0,0.4,0h1.1c0.2,0,0.4,0.2,0.4,0.4S1.7,0.8,1.5,0.8z"></path>
		</g>
	</g>
</g>
</svg>
